# xmcd CD database file
#
# Track frame offsets:
#	150
#	28610
#	54067
#	79674
#	110962
#	157456
#	192434
#
# Disc length: 3103 seconds
#
# Revision: 0
# Processed by: cddbd v1.5PL3 Copyright (c) Steve Scherf et al.
# Submitted via: CDex 1.51
#
DISCID=5b0c1d07
DTITLE=Terry Oldfield - Turning Point
DYEAR=2000
DGENRE=New Age
TTITLE0=Guardian Angel
TTITLE1=Lost for Words
TTITLE2=Southern Shores
TTITLE3=Some Kind of Miracle
TTITLE4=Capture Me
TTITLE5=Bright Star
TTITLE6=Into the Blue
EXTD=YEAR: 2000
EXTT0=
EXTT1=
EXTT2=
EXTT3=
EXTT4=
EXTT5=
EXTT6=
PLAYORDER=
